<svg xmlns="http://www.w3.org/2000/svg" viewBox="0 0 196.3 63.2"><path d="M16.3 0c1.5 0 3 .2 4.4.5 1.4.3 3 .9 4.7 1.7V7c-1.6-.9-3.1-1.6-4.5-2-1.4-.4-2.8-.6-4.3-.6-1.9 0-3.6.4-5.1 1.2S8.7 7.5 7.8 8.9s-1.3 3-1.3 4.7c0 1.8.4 3.4 1.3 4.8s2 2.5 3.5 3.3 3.2 1.2 5.1 1.2c1.5 0 2.8-.2 4.2-.6 1.3-.4 3-1.2 5-2.3v4.8c-1.7.9-3.3 1.5-4.8 1.9-1.4.4-3.1.6-5.1.6-2.8 0-5.3-.6-7.5-1.7S4.3 22.9 3 20.8c-1.3-2.1-1.9-4.4-1.9-6.9 0-2.7.6-5.1 1.9-7.2 1.3-2.1 3.1-3.8 5.4-4.9C10.9.6 13.4 0 16.3 0zM39.6.3v11.2h13.8V.3h5.1v26.6h-5.1V15.7H39.6v11.2h-5.1V.3h5.1zM77.8.3c2.5 0 4.5.7 6.1 2.1 1.6 1.4 2.4 3.2 2.4 5.4 0 1.5-.4 2.8-1.2 3.9s-1.9 2-3.5 2.7c.8.5 1.6 1.1 2.3 1.9.7.8 1.5 2.1 2.5 4 1.6 3.2 2.8 5.4 3.6 6.7h-5.7c-.4-.6-.9-1.5-1.6-2.8-1.5-2.8-2.5-4.7-3.2-5.7-.7-1-1.3-1.7-2-2.1-.6-.4-1.4-.6-2.2-.6h-1.9V27h-5.1V.3h9.5zm-1.2 11.4c1.3 0 2.4-.3 3.2-1 .8-.7 1.2-1.6 1.2-2.8 0-1.2-.4-2.1-1.1-2.7s-1.9-.9-3.3-.9h-3.2v7.4h3.2zM102.5.3v26.6h-5.1V.3h5.1zM120 0c2.6 0 5.1.6 7.5 1.9v4.6c-2.8-1.7-5.2-2.5-7.3-2.5-1.3 0-2.3.2-3 .8-.7.5-1.1 1.2-1.1 2 0 1 .7 1.9 2 2.8.4.3 1.8 1 4.4 2.1 2.2 1 3.8 2.2 4.7 3.4 1 1.3 1.4 2.8 1.4 4.5 0 2.3-.8 4.1-2.5 5.5-1.6 1.4-3.8 2.1-6.4 2.1-1.7 0-3.2-.2-4.4-.6-1.2-.4-2.6-1-4.1-1.9v-5.1c2.8 2.4 5.5 3.5 8 3.5 1.3 0 2.3-.3 3-.8.8-.5 1.2-1.3 1.2-2.2 0-1.2-.7-2.2-2-3-1.1-.6-2.6-1.3-4.3-2.2-2.1-1-3.7-2.1-4.7-3.3-1-1.3-1.5-2.7-1.5-4.4 0-2.2.8-4 2.5-5.3S117.3 0 120 0zM154.1.2l-14.3 27h-5.1L149 .2h5.1zM19.4 36.2l-14.3 27H0l14.3-27h5.1zM36.5 36.3c2.4 0 4.4.6 5.9 1.9s2.3 2.9 2.3 4.8c0 1.2-.3 2.3-1 3.2s-1.6 1.7-2.8 2.2v.2c1.8.4 3.3 1.2 4.3 2.5s1.5 2.7 1.5 4.3c0 1.5-.4 2.8-1.1 3.9-.8 1.2-1.8 2-3.1 2.6-1.3.6-2.9.9-4.7.9h-11V36.3h9.7zm-1.3 11.1c1.4 0 2.4-.3 3.2-1 .8-.6 1.2-1.5 1.2-2.7 0-1-.4-1.8-1.1-2.4s-1.7-.9-2.9-.9h-3.7v7h3.3zm1.2 11.5c1.7 0 3-.3 3.9-1 .9-.7 1.3-1.6 1.3-2.9 0-1.1-.4-2-1.3-2.7-.9-.7-2.1-1-3.5-1H32v7.5h4.4zM68.8 36c2.7 0 5.2.6 7.4 1.7s4 2.8 5.3 4.9c1.3 2.1 2 4.5 2 7s-.6 4.8-1.9 6.9-3 3.8-5.2 4.9c-2.2 1.2-4.7 1.8-7.5 1.8-2.7 0-5.2-.6-7.5-1.8s-4-2.8-5.3-4.9-1.9-4.4-1.9-6.9c0-2.4.6-4.7 1.9-6.9s3-3.8 5.2-5 4.6-1.7 7.5-1.7zm-9.4 13.6c0 1.8.4 3.3 1.2 4.8.8 1.4 1.9 2.5 3.3 3.3 1.4.8 3 1.2 4.8 1.2 2.7 0 5-.9 6.7-2.6s2.6-3.9 2.6-6.6c0-1.8-.4-3.3-1.2-4.8-.8-1.4-1.9-2.5-3.3-3.3-1.4-.8-3.1-1.2-4.9-1.2s-3.4.4-4.9 1.2c-1.4.8-2.5 1.9-3.3 3.3-.6 1.4-1 3-1 4.7zM104.8 36.3l11.7 26.6h-5.4l-2.8-6.5H96.5L94 62.9h-5.4l10.9-26.6h5.3zm-6.7 16.2h8.6L102.2 42l-4.1 10.5zM128.6 36.3v12.3h.1l9.7-12.3h5.8l-9.9 12.5 12.8 14h-6.6l-12-13v13h-5.1V36.3h5.2zM171 36.3v4h-12v7h11.5v4H159v7.5h12.3v4h-17.4V36.3H171zM187.7 36c2.6 0 5.1.6 7.5 1.9v4.6c-2.7-1.7-5.2-2.5-7.3-2.5-1.3 0-2.3.2-3 .8-.7.5-1.1 1.2-1.1 2 0 1 .7 1.9 2 2.8.4.3 1.8 1 4.4 2.1 2.2 1 3.8 2.2 4.7 3.4 1 1.3 1.4 2.8 1.4 4.5 0 2.3-.8 4.1-2.5 5.5s-3.8 2.1-6.4 2.1c-1.7 0-3.2-.2-4.4-.6-1.2-.4-2.6-1-4.1-1.9v-5.1c2.8 2.4 5.5 3.5 8 3.5 1.3 0 2.3-.3 3-.8.8-.5 1.2-1.3 1.2-2.2 0-1.2-.7-2.2-2-3-1.1-.6-2.6-1.3-4.3-2.2-2.1-1-3.7-2.1-4.7-3.3-1-1.3-1.5-2.7-1.5-4.4 0-2.2.8-4 2.5-5.3 1.7-1.2 3.9-1.9 6.6-1.9z"/></svg>